<?xml version="1.0" standalone="no"?><!DOCTYPE svg PUBLIC "-//W3C//DTD SVG 1.1//EN" "http://www.w3.org/Graphics/SVG/1.1/DTD/svg11.dtd"><svg t="1584354590879" class="icon" viewBox="0 0 1109 1024" version="1.1" xmlns="http://www.w3.org/2000/svg" p-id="3583" xmlns:xlink="http://www.w3.org/1999/xlink" width="216.6015625" height="200"><defs><style type="text/css"></style></defs><path d="M368.803892 981.204197a230.463803 29.866557 0 1 0 460.927605 0 230.463803 29.866557 0 1 0-460.927605 0Z" fill="#EFEFEF" p-id="3584"></path><path d="M599.267694 1023.935354a1340.504182 1340.504182 0 0 1-164.589296-8.856533c-65.615921-8.468656-78.803752-19.393868-78.803752-33.93927s12.929246-25.405968 78.803752-33.93927a1354.273829 1354.273829 0 0 1 164.589296-8.856533 1354.273829 1354.273829 0 0 1 164.589297 8.856533c65.615921 8.533302 78.803752 19.393868 78.803751 33.93927s-12.929246 25.470614-78.803751 33.93927a1340.504182 1340.504182 0 0 1-164.589297 8.856533z m-206.867929-42.795803c29.155449 8.274717 103.046087 16.937312 206.867929 16.937312s177.712481-8.662595 206.86793-16.937312c-29.155449-8.274717-103.046087-16.937312-206.86793-16.937312s-177.712481 8.662595-206.867929 16.937312z" fill="#231815" p-id="3585"></path><path d="M312.303088 322.459134a41.373586 41.373586 0 0 0-37.494812-7.692901 67.813893 67.813893 0 0 0-48.743256 56.888681 41.179647 41.179647 0 0 0 13.317123 35.81401 38.787737 38.787737 0 0 0 25.858491 9.309057 60.638162 60.638162 0 0 0 44.605898-22.62618 69.882572 69.882572 0 0 0 8.404009-11.959552c12.024198-22.238302 9.502996-46.222053-5.947453-59.733115z m-23.337288 43.377619a35.232194 35.232194 0 0 1-4.395943 6.464623 27.668586 27.668586 0 0 1-19.393869 10.860566 5.882807 5.882807 0 0 1-3.94342-1.163632 8.727241 8.727241 0 0 1-1.680802-7.240377 31.353421 31.353421 0 0 1 7.822194-17.001958 31.676652 31.676652 0 0 1 15.579741-10.27875 16.614081 16.614081 0 0 1 3.684835-0.581816 6.076745 6.076745 0 0 1 3.814127 1.098985c2.262618 2.004033 2.90908 9.373703-1.486863 17.842359z" fill="#8FC422" p-id="3586"></path><path d="M1108.550678 85.660001c-17.777713-96.581465-256.38694-64.646228-335.578569-51.716982a479.804304 479.804304 0 0 0-33.034223-12.218137l-0.775755-0.323231a18.812052 18.812052 0 0 0-3.232311-1.03434 447.610482 447.610482 0 0 0-392.855127 62.448256c-98.650144 32.323114-166.593329 90.504719-210.229533 156.120641a17.260543 17.260543 0 0 0-6.917147 10.860566 385.356165 385.356165 0 0 0-56.759388 182.043778c-0.905047 20.492854-1.357571 88.629979 32.323114 102.722856a96.258233 96.258233 0 0 1-12.929245 47.902855 59.9917 59.9917 0 0 0-4.525236 5.49493 36.137241 36.137241 0 0 1-3.296958 3.684835c-12.929246 10.925213-32.323114 13.317123-58.181605 7.046438a16.743373 16.743373 0 0 0-7.951486 32.323114 140.411607 140.411607 0 0 0 34.003916 4.525236 94.189554 94.189554 0 0 0 21.462547-2.715141 135.757079 135.757079 0 0 0 10.666628 54.044246 16.808019 16.808019 0 0 0 14.286816 10.084812 15.644387 15.644387 0 0 0 6.917147-1.55151 16.743373 16.743373 0 0 0 8.274717-22.173656c0-0.452524-16.420142-38.335213-0.646462-63.935119 18.876699-21.979717 23.725166-51.716982 24.694859-71.110851a224.128472 224.128472 0 0 0 28.896864-4.848467 443.53777 443.53777 0 0 0 123.151064 229.429463 14.480755 14.480755 0 0 0 6.464623 6.464623 445.41251 445.41251 0 0 0 677.686407-68.525002 22.044364 22.044364 0 0 0 2.779788-3.814127 446.382204 446.382204 0 0 0 59.668468-369.84107c0-0.775755-0.452524-1.680802-0.775755-2.456557a444.313525 444.313525 0 0 0-88.629978-165.623636c48.549317-6.787854 138.924744-23.14335 159.546891-51.135166a27.92717 27.92717 0 0 0 5.494929-22.173657z m-108.99354 247.077884c-0.51717 17.001958-8.921179 124.508635-124.056112 182.819532a16.808019 16.808019 0 0 0 7.628255 31.741298 16.032265 16.032265 0 0 0 7.498963-1.810094c70.27045-35.426133 105.825875-86.561299 123.926818-130.197503 0.775755 10.666628 1.357571 21.397901 1.357571 32.323114a411.66718 411.66718 0 0 1-69.23611 228.524415c-41.050355 19.781746-148.233801 58.763421-176.548848 12.282784a16.769232 16.769232 0 0 0-28.638279 17.454481c17.583774 28.767571 47.64427 38.399859 80.419907 38.39986a280.241398 280.241398 0 0 0 82.811818-15.191864A412.830812 412.830812 0 0 1 602.241421 860.962213a401.71166 401.71166 0 0 1-59.409884-4.525236c-16.096911-13.963585-82.876464-77.575474-62.38361-143.256041a16.930847 16.930847 0 0 0-32.323114-10.084811c-17.389835 55.466464 9.244411 106.407691 35.749364 140.282314a419.166142 419.166142 0 0 1-168.080192-98.779436c-5.559576-25.470614-24.177689-131.425781 43.054388-169.243825a16.808019 16.808019 0 0 0-16.420142-29.284741c-60.573516 34.197855-69.042171 104.209719-66.391676 154.698423a408.952038 408.952038 0 0 1-79.320922-171.958966c48.032147-4.331297 170.084226-33.745331 295.433262-209.130547a151.918636 151.918636 0 0 1 123.73288-63.224011h0.646462a308.815031 308.815031 0 0 0-166.334744 146.87623c-31.935237 59.47453-36.525119 123.603588-11.959553 175.83774 25.858491 54.561416 72.403775 85.656252 138.601513 92.508752 8.145425 0.775755 16.226203 1.228278 24.306982 1.228278 120.435923 0 223.675949-92.056229 240.354675-219.150713 8.985826-67.684601-3.555543-121.793493-36.912996-160.969107a187.086184 187.086184 0 0 0-88.95321-55.207879 14.480755 14.480755 0 0 0-3.232311-1.034339 347.279536 347.279536 0 0 0-91.086535-13.511062 184.694273 184.694273 0 0 0-156.443872 77.187596c-120.048045 168.080193-235.82944 192.063943-273.712129 195.296255l-18.941345 0.969693c-28.96151 8.210071-44.153374 9.115118-51.716982 8.533302a9.373703 9.373703 0 0 0-1.87474 0 16.678727 16.678727 0 0 1-4.137359-0.969693c-6.464623-4.395943-18.16559-39.951369-8.985826-101.688517a371.521872 371.521872 0 0 1 51.264459-137.373234c31.288774-14.416109 165.300405-71.110851 243.393048-20.363562a16.808019 16.808019 0 0 0 18.100944-28.315048c-66.779553-43.312973-160.839815-23.983751-222.059793-3.361604a362.665339 362.665339 0 0 1 159.611537-98.650144l2.585849-0.775754 1.680802-1.228279c8.921179-5.171698 125.930852-67.619954 243.199109 54.755355a16.614081 16.614081 0 0 0 23.789812 0.581817 16.872665 16.872665 0 0 0 0.452524-23.725166c-58.504836-61.090685-117.656135-81.518893-166.916561-84.880497a413.02475 413.02475 0 0 1 266.794983-5.818161 153.276206 153.276206 0 0 1 21.850425 12.929246 16.484788 16.484788 0 0 0 2.521203 1.810094c31.805944 22.884765 80.03203 72.66236 70.399742 160.257999a16.678727 16.678727 0 0 0 14.868633 18.553468 8.533302 8.533302 0 0 0 1.810094 0 16.743373 16.743373 0 0 0 16.678727-14.997925 199.692198 199.692198 0 0 0-28.315048-130.973258 415.287368 415.287368 0 0 1 172.346844 231.950666z m-292.394889-62.771488a154.051961 154.051961 0 0 1 71.951251 44.799836c27.022123 31.676652 36.783704 76.929011 29.155449 135.110617-15.191864 115.328871-117.462196 200.015429-227.9426 188.766985-53.850308-5.430283-91.280474-30.189788-111.644035-73.373468s-16.032265-95.999648 11.054505-145.971183c63.094718-116.557149 168.144839-143.96715 227.42543-149.332787z m211.65175-141.575239a10.601981 10.601981 0 0 0-2.90908 0.646462A448.450883 448.450883 0 0 0 825.852723 60.383326c111.773328-14.028231 236.605194-12.929246 249.146563 28.832218-12.476722 12.412076-83.393634 30.319081-156.185287 39.175614z" fill="#8FC422" p-id="3587"></path><path d="M808.268949 449.87685c-15.191864 115.328871-117.462196 200.015429-227.9426 188.766985-53.850308-5.430283-91.280474-30.189788-111.644035-73.373468s-16.032265-95.999648 11.054505-145.971183c63.094718-116.36321 168.080193-143.708565 227.42543-149.332787a154.051961 154.051961 0 0 1 71.951251 44.799836c27.022123 31.676652 36.783704 76.929011 29.155449 135.110617z" fill="#FFFFFF" p-id="3588"></path><path d="M1074.999286 89.215544c-12.476722 12.412076-83.393634 30.319081-156.185287 39.175614a10.601981 10.601981 0 0 0-2.90908 0.646462A448.450883 448.450883 0 0 0 825.852723 60.383326c111.773328-14.028231 236.605194-13.123184 249.146563 28.832218z" fill="#779D2E" p-id="3589"></path><path d="M747.113618 682.991148a16.678727 16.678727 0 0 1 23.014057 5.559575c28.315048 46.480638 135.757079 7.498962 176.548848-12.282783a411.66718 411.66718 0 0 0 69.23611-228.847647c0-10.731274-0.581816-21.462548-1.357571-32.323114-18.100944 43.636204-53.656369 94.77137-123.926818 130.197503a16.032265 16.032265 0 0 1-7.498963 1.810095 16.808019 16.808019 0 0 1-7.628255-31.741298c115.134932-58.181605 123.538942-165.817575 124.056112-182.819533a415.287368 415.287368 0 0 0-172.346844-231.756727 199.692198 199.692198 0 0 1 28.315048 131.296489 16.743373 16.743373 0 0 1-16.678727 14.997925 8.533302 8.533302 0 0 1-1.810094 0 16.678727 16.678727 0 0 1-14.868633-18.553468c9.632288-87.595639-38.787737-137.373234-70.399742-160.257999a16.484788 16.484788 0 0 1-2.521203-1.810094 153.276206 153.276206 0 0 0-21.850425-12.929246 413.02475 413.02475 0 0 0-266.794983 5.818161c49.260426 3.361604 108.411724 23.789812 166.916561 84.880497a16.872665 16.872665 0 0 1-0.452524 23.725166 16.614081 16.614081 0 0 1-23.789812-0.581816c-117.268257-122.698541-234.27793-60.120992-243.199109-55.078587l-1.680802 1.228279-2.585849 0.775754A362.665339 362.665339 0 0 0 196.263109 212.948424c61.219978-20.622147 155.150947-39.951369 222.059793 3.361604a16.743373 16.743373 0 0 1-18.230236 28.056463c-78.092643-50.55335-212.104274 5.947453-243.393048 20.363562a371.521872 371.521872 0 0 0-51.264459 137.373234c-9.179764 61.737148 2.585849 96.969342 8.985826 101.688517a16.678727 16.678727 0 0 0 4.137358 0.969693 9.373703 9.373703 0 0 1 1.874741 0c7.628255 0.581816 22.820118 0 51.716982-8.533302l18.941345-0.969693c37.88269-3.232311 153.664084-27.539293 273.712129-195.296255a184.694273 184.694273 0 0 1 156.443872-76.929011 347.279536 347.279536 0 0 1 91.086535 13.511062 14.480755 14.480755 0 0 1 3.232311 1.034339 187.086184 187.086184 0 0 1 89.017856 55.337171c33.357454 39.175614 45.898822 93.284507 36.912996 160.969108-16.678727 127.094484-119.918753 219.02142-240.354675 219.150713-8.080778 0-16.161557-0.452524-24.306982-1.228279-66.197737-6.8525-112.872314-37.947336-138.601513-92.508752-24.565567-52.363445-20.234269-116.36321 11.959553-175.967032a308.815031 308.815031 0 0 1 166.334744-146.87623h-0.646462a151.918636 151.918636 0 0 0-123.73288 63.224011C366.541274 495.129209 244.74778 524.478597 196.715633 528.809894a408.952038 408.952038 0 0 0 79.320922 171.958966c-2.650495-50.424058 5.818161-120.500569 66.456322-154.569131a16.808019 16.808019 0 0 1 16.420142 29.284742c-67.232077 37.818043-48.613963 143.773211-43.054388 169.243824a419.166142 419.166142 0 0 0 168.080193 98.779437c-26.504953-33.874623-53.139199-84.815851-35.749364-140.282315a16.930847 16.930847 0 0 1 32.323113 10.084812c-20.492854 65.874506 46.286699 129.292456 62.38361 143.256041a401.71166 401.71166 0 0 0 59.409884 4.525236 412.830812 412.830812 0 0 0 302.4797-131.878305 280.241398 280.241398 0 0 1-82.811818 15.191863c-32.775638 0-62.836134-9.632288-80.419907-38.399859a16.743373 16.743373 0 0 1 5.559576-23.014057zM318.121249 382.192249a69.882572 69.882572 0 0 1-8.40401 11.959552 60.638162 60.638162 0 0 1-44.605897 22.62618 38.787737 38.787737 0 0 1-25.858491-9.309057 41.179647 41.179647 0 0 1-13.317123-35.81401 67.813893 67.813893 0 0 1 48.743256-56.888681 41.373586 41.373586 0 0 1 37.494812 7.692901c15.579741 13.511062 18.100944 37.494812 5.947453 59.733115z" fill="#8FC422" p-id="3590"></path><path d="M288.9658 365.836753a35.232194 35.232194 0 0 1-4.395943 6.464623 27.668586 27.668586 0 0 1-19.393869 10.860566 5.882807 5.882807 0 0 1-3.94342-1.163632 8.727241 8.727241 0 0 1-1.680802-7.240377 31.353421 31.353421 0 0 1 7.822194-17.001958 31.676652 31.676652 0 0 1 15.579741-10.27875 16.614081 16.614081 0 0 1 3.684835-0.581816 6.076745 6.076745 0 0 1 3.814127 1.098985c2.262618 2.004033 2.90908 9.373703-1.486863 17.842359z" fill="#F8B62D" p-id="3591"></path><path d="M274.808276 314.766233a67.813893 67.813893 0 0 0-48.807902 56.888681 41.30894 41.30894 0 0 0 13.317123 35.81401 38.787737 38.787737 0 0 0 25.858491 9.244411 60.508869 60.508869 0 0 0 44.670544-22.561534 74.472455 74.472455 0 0 0 8.274717-11.959552c12.218137-22.238302 9.890873-46.222053-5.818161-59.668468a41.438232 41.438232 0 0 0-37.494812-7.757548z m14.157524 51.07052a33.93927 33.93927 0 0 1-4.331297 6.464623c-9.050472 10.537335-20.104977 12.34743-23.14335 9.696934a8.921179 8.921179 0 0 1-1.680802-7.305023 31.094836 31.094836 0 0 1 7.822194-17.001958 32.323114 32.323114 0 0 1 15.579741-10.343397 14.997925 14.997925 0 0 1 3.620189-0.452523 5.688868 5.688868 0 0 1 3.878773 1.098985c2.004033 2.004033 2.715142 9.373703-1.745448 17.842359z" fill="#231815" p-id="3592"></path><path d="M1108.550678 85.660001c-17.777713-96.581465-256.38694-64.646228-335.578569-51.716982q-16.161557-6.464623-33.098869-12.153491l-0.711109-0.323231a19.393868 19.393868 0 0 0-3.296957-1.034339 447.48119 447.48119 0 0 0-392.790481 62.448256c-98.71479 32.323114-166.593329 90.504719-210.164887 156.12064a16.808019 16.808019 0 0 0-6.981793 10.925213 386.584443 386.584443 0 0 0-56.759388 181.849839c-0.969693 20.5575-1.422217 88.694625 32.323114 102.787502a96.969342 96.969342 0 0 1-12.929245 47.902855 69.171464 69.171464 0 0 0-4.46059 5.49493 47.1271 47.1271 0 0 1-3.42625 3.749481c-12.929246 10.925213-32.323114 13.252477-58.181605 6.917146a16.743373 16.743373 0 1 0-7.951486 32.323114 143.44998 143.44998 0 0 0 34.003915 4.46059 95.28854 95.28854 0 0 0 21.527194-2.585849 136.144956 136.144956 0 0 0 10.601982 53.914954 16.808019 16.808019 0 0 0 14.351462 10.214104 17.777713 17.777713 0 0 0 6.917147-1.486863 16.808019 16.808019 0 0 0 8.339363-22.238303c0-0.387877-16.484788-38.335213-0.775755-63.999765 18.941345-21.850425 23.789812-51.716982 24.759506-71.110851a202.084109 202.084109 0 0 0 28.832217-4.783821 445.153926 445.153926 0 0 0 122.827833 229.494109 16.290849 16.290849 0 0 0 6.464623 6.464623 445.541803 445.541803 0 0 0 677.621761-68.589648 16.355496 16.355496 0 0 0 2.779788-3.878774 446.058973 446.058973 0 0 0 60.120992-369.776423c0-0.840401-0.452524-1.680802-0.711108-2.456557a447.545836 447.545836 0 0 0-88.629979-165.623636c48.484671-6.8525 138.860098-23.14335 159.482245-51.135166a27.92717 27.92717 0 0 0 5.494929-22.173657zM172.214712 496.48678c-28.896864 8.210071-44.21802 9.050472-51.716982 8.468656h-1.87474a13.511062 13.511062 0 0 1-4.137359-0.969694c-6.464623-4.395943-18.100944-39.951369-8.92118-101.688516a370.681471 370.681471 0 0 1 51.199813-137.373234c31.288774-14.351463 165.365051-71.110851 243.393048-20.298916a16.827413 16.827413 0 1 0 18.100944-28.379694c-66.714907-43.248326-160.839815-23.854458-222.059793-3.296958a362.536046 362.536046 0 0 1 159.611537-98.71479l2.585849-0.775754 1.616156-1.228279c8.985826-5.042406 125.930852-67.490662 243.263755 54.884648a16.808019 16.808019 0 0 0 24.242336-23.207996C569.01326 82.880214 509.861961 62.322713 460.601535 59.025756a411.925764 411.925764 0 0 1 266.794983-5.818161 159.999414 159.999414 0 0 1 21.785779 12.929246 17.001958 17.001958 0 0 0 2.585849 1.810094 167.369084 167.369084 0 0 1 70.399742 160.322645 16.743373 16.743373 0 0 0 14.803986 18.488822h1.874741a16.808019 16.808019 0 0 0 16.678727-14.933279 199.045736 199.045736 0 0 0-28.379694-131.037904 415.481307 415.481307 0 0 1 172.476136 232.209251c-0.581816 17.001958-8.985826 124.573281-124.120758 182.819532a16.808019 16.808019 0 0 0 7.563609 31.741298 16.484788 16.484788 0 0 0 7.563609-1.810094c70.205804-35.490779 105.825875-86.561299 123.926818-130.197503 0.840401 10.666628 1.357571 21.333255 1.357571 32.323114a411.15001 411.15001 0 0 1-69.23611 228.26583c-41.050355 19.846392-148.233801 58.763421-176.548848 12.34743a16.808019 16.808019 0 0 0-28.638279 17.519128c17.519128 28.702925 47.708916 38.335213 80.419907 38.335213a277.97878 277.97878 0 0 0 82.811818-15.25651 411.602533 411.602533 0 0 1-362.018876 127.482362c-16.032265-14.028231-82.876464-77.575474-62.318964-143.385334a16.911453 16.911453 0 1 0-32.323114-9.955519c-17.260543 55.401817 9.309057 106.278399 35.878657 140.217668a418.972203 418.972203 0 0 1-168.080193-98.779436c-5.559576-25.470614-24.113043-131.425781 43.119034-169.243825a16.808019 16.808019 0 0 0-16.484788-29.284741c-60.573516 34.197855-69.171464 104.145073-66.456322 154.569131a408.176283 408.176283 0 0 1-79.385568-171.829674c48.032147-4.395943 170.019579-33.874623 295.497908-209.195193a151.660051 151.660051 0 0 1 123.73288-63.224011h0.646462a308.4918 308.4918 0 0 0-166.334744 146.87623c-31.935237 59.47453-36.525119 123.668234-11.894906 175.83774 25.858491 54.561416 72.339129 85.656252 138.536866 92.444106a235.958732 235.958732 0 0 0 24.242336 1.228278c120.500569 0 223.740595-92.056229 240.419321-219.086067 8.921179-67.619954-3.490896-121.793493-36.912996-160.969107a188.120523 188.120523 0 0 0-88.95321-55.272525 18.812052 18.812052 0 0 0-3.232311-1.03434 357.49364 357.49364 0 0 0-91.151181-13.511061 185.017504 185.017504 0 0 0-156.314579 77.187596c-120.112692 168.080193-235.82944 192.063943-273.776776 195.360901z m534.947537-226.261798a154.439839 154.439839 0 0 1 71.886605 44.73519c27.08677 31.482713 36.783704 76.735073 29.220095 134.5288-15.191864 115.393517-117.462196 200.080075-228.007246 188.896278-53.721015-5.494929-91.280474-30.189788-111.579389-73.373468s-16.032265-95.676417 11.054505-145.712598c63.094718-116.557149 168.144839-143.96715 227.42543-149.332787z m211.716396-141.639885a14.286816 14.286816 0 0 0-2.973726 0.711108A451.295317 451.295317 0 0 0 825.529492 60.383326c111.837974-13.963585 236.605194-12.929246 249.146562 28.832218-12.088845 12.412076-83.005757 30.319081-155.797409 39.110968z" fill="#231815" p-id="3593"></path><path d="M448.835922 778.215041c-43.377619-17.454482-83.328988-38.787737-98.520852-61.543209 0 0-18.424175-14.997925-41.050354-37.171581a287.481776 287.481776 0 0 0 6.464622 65.228044 418.00251 418.00251 0 0 0 168.080193 98.779437 203.635618 203.635618 0 0 1-34.973609-65.292691zM278.363819 647.112491c-25.858491-29.155449-64.258351-62.254318-74.73104-88.629978l13.252477 39.175614a412.184349 412.184349 0 0 0 59.151299 103.110733 264.403072 264.403072 0 0 1 2.327264-53.656369zM862.895012 126.64571c46.674577 78.545167 95.482479 186.245783 105.502644 304.289795a215.401231 215.401231 0 0 0 31.094835-98.262267 414.770198 414.770198 0 0 0-136.597479-206.027528zM904.591829 729.213201a279.853521 279.853521 0 0 1-82.747172 15.191863 146.811584 146.811584 0 0 1-17.842359-1.163632 586.082702 586.082702 0 0 1-208.419439 81.001724s-49.001841-11.507029-103.757196-30.189789a239.191043 239.191043 0 0 0 50.876582 62.577549 402.358123 402.358123 0 0 0 59.409883 4.46059 412.50758 412.50758 0 0 0 302.479701-131.878305zM970.078458 485.626214a455.885199 455.885199 0 0 1-12.153491 96.258233s-28.508987 62.318964-104.791536 125.478329a396.992486 396.992486 0 0 0 93.4138-31.224129 410.956071 410.956071 0 0 0 69.23611-228.847646c0-10.731274-0.51717-21.462548-1.357571-32.323114a244.685973 244.685973 0 0 1-44.347312 70.658327z" fill="#779D2E" p-id="3594"></path></svg>