<?xml version="1.0" standalone="no"?><!DOCTYPE svg PUBLIC "-//W3C//DTD SVG 1.1//EN" "http://www.w3.org/Graphics/SVG/1.1/DTD/svg11.dtd"><svg t="1584354660918" class="icon" viewBox="0 0 1024 1024" version="1.1" xmlns="http://www.w3.org/2000/svg" p-id="2691" xmlns:xlink="http://www.w3.org/1999/xlink" width="200" height="200"><defs><style type="text/css"></style></defs><path d="M625.84 520.6c-0.7-0.74-1.42-1.48-2.15-2.21L496.75 391.45c-0.7-0.7-1.41-1.39-2.13-2.07-20.74-19.67-49.08-29.27-77.74-26.33-29.19 2.99-55.53 18.51-72.26 42.57-18.75 26.96-52.55 74.03-79.67 103.47l0.03 0.03a9.947 9.947 0 0 0-2.96 7.1c0 5.52 4.48 10 10 10 3.18 0 6-1.49 7.83-3.79 27.99-30.46 62.2-78.07 81.2-105.38 13.4-19.27 34.5-31.7 57.88-34.1 22.86-2.34 45.44 5.29 61.94 20.94 0.59 0.56 1.17 1.13 1.75 1.71l126.95 126.95c0.6 0.6 1.19 1.21 1.77 1.82 15.61 16.5 23.24 39.04 20.94 61.85a80.488 80.488 0 0 1-33.9 57.86c-30.98 21.72-87.07 62.27-114.62 89.82-27.54 27.54-68.09 83.63-89.82 114.62a80.52 80.52 0 0 1-57.86 33.9c-22.81 2.31-45.35-5.33-61.85-20.94-0.61-0.58-1.22-1.17-1.81-1.76l-0.44-0.41c-0.37-0.33-37.51-33.3-64.69-60.47-27.18-27.18-61.08-65.26-61.42-65.64l-0.4-0.43c-0.58-0.58-1.14-1.16-1.7-1.75-15.65-16.51-23.29-39.08-20.95-61.94 2.4-23.38 14.82-44.48 34.1-57.88 22.43-15.6 58.55-41.46 87.62-65.71 0.43-0.31 0.84-0.65 1.22-1.02 0.01-0.01 0.03-0.02 0.04-0.04a9.96 9.96 0 0 0 2.94-7.08c0-5.52-4.48-10-10-10-2.77 0-5.27 1.13-7.08 2.94l-0.05-0.05c-28.35 23.64-64 49.15-86.12 64.54-24.07 16.74-39.58 43.08-42.57 72.27-2.94 28.66 6.66 57 26.33 77.74 0.61 0.65 1.24 1.29 1.87 1.93 2.82 3.16 35.51 39.75 62.03 66.27 26.49 26.49 62.17 58.28 65.34 61.09 0.66 0.66 1.33 1.31 2 1.94 20.72 19.61 49.01 29.2 77.61 26.31a100.481 100.481 0 0 0 72.22-42.31c21.35-30.45 61.11-85.49 87.58-111.95s81.5-66.23 111.95-87.58a100.45 100.45 0 0 0 42.31-72.22c2.89-28.65-6.7-56.94-26.32-77.67z" p-id="2692"></path><path d="M274.22 871.44c16.5 15.62 39.04 23.25 61.85 20.94a80.488 80.488 0 0 0 57.86-33.9c21.72-30.98 62.27-87.07 89.82-114.62 27.54-27.54 83.63-68.09 114.62-89.82a80.52 80.52 0 0 0 33.9-57.86c2.31-22.81-5.33-45.35-20.94-61.85-0.58-0.61-1.17-1.22-1.77-1.82L482.6 405.59a93.72 93.72 0 0 0-1.75-1.71c-16.5-15.65-39.08-23.29-61.94-20.94-23.38 2.4-44.48 14.82-57.88 34.1-20.98 30.17-60.54 85.14-89.76 114.36-29.22 29.22-84.19 68.78-114.36 89.76-19.27 13.4-31.7 34.5-34.1 57.88-2.34 22.86 5.29 45.44 20.95 61.94 0.56 0.59 1.13 1.17 1.7 1.75l0.4 0.43c0.34 0.38 34.24 38.46 61.42 65.64 27.17 27.17 64.31 60.14 64.69 60.47l0.44 0.41c0.6 0.6 1.2 1.18 1.81 1.76z" fill="#F2E1CC" p-id="2693"></path><path d="M411.32 469.82c-21 27.71-62.56 81.25-91.46 110.16-28.91 28.91-82.45 70.46-110.16 91.46-33.23 25.18-49.21 64.96-41.86 95.94 11.67 12.67 26.21 28.17 39.22 41.18 27.17 27.17 64.31 60.14 64.69 60.47l0.44 0.41c0.6 0.6 1.2 1.19 1.81 1.76 16.5 15.62 39.04 23.25 61.85 20.94a80.488 80.488 0 0 0 57.86-33.9c21.72-30.98 62.27-87.07 89.82-114.62 27.54-27.54 83.63-68.09 114.62-89.82a80.52 80.52 0 0 0 33.9-57.86c2.31-22.81-5.33-45.35-20.94-61.85-0.58-0.61-1.17-1.22-1.77-1.82L504.36 427.35c-30.52-5.73-68.64 10.27-93.04 42.47z" fill="#FFEFD4" p-id="2694"></path><path d="M726.45 509.76c-0.22-0.23-0.37-0.39-0.54-0.55L511.97 295.28l-0.14-0.14c-0.11-0.11-0.23-0.23-0.35-0.34-11.94-11.42-30.12-12.16-40.58-1.7l-16.81 16.81c-10.72 10.72-9.74 29.15 2.18 41.07L670.2 564.91c11.92 11.92 30.35 12.9 41.07 2.18l16.81-16.81c10.46-10.46 9.73-28.64-1.63-40.52z" fill="#69BBFF" p-id="2695"></path><path d="M520.39 371.37c-8.64 8.64-13.81 19.02-15.08 28.63l164.47 164.47c11.92 11.92 31.43 11.82 43.48-0.23l18.89-18.89c11.76-11.76 12.1-31.02 0.77-42.93-0.21-0.23-0.37-0.39-0.54-0.55L567.91 337.39c-9.61 1.28-19.99 6.45-28.63 15.09l-18.89 18.89z" fill="#92CBFF" p-id="2696"></path><path d="M551.03 278.56c-4.62 4.62-8.7 9.76-12.16 15.34l188.26 188.26A85.387 85.387 0 0 0 742.47 470c23.96-23.96 32.02-59.95 22.12-98.76-0.68-2.31-1.33-4.61-1.91-6.82-10.15-37.97-8.88-66.69 3.79-85.35 11.06-16.28 27.26-19.33 31.96-19.88l0.45-0.04c0.05 0 0.1-0.01 0.15-0.01 0.43-0.04 0.74-0.06 0.92-0.08l0.07-0.01c8.01-0.76 15.56-4.32 21.27-10.03 13.59-13.59 13.59-35.7 0-49.29-13.58-13.58-35.69-13.58-49.28 0.01A34.87 34.87 0 0 0 762 220.67l0.01 0.24-0.12 0.82c-0.26 1.83-3.03 18.21-20.46 29.91-20.17 13.53-50.94 15.16-91.46 4.86-38.89-9.98-74.95-1.93-98.94 22.06z" fill="#FFCD6E" p-id="2697"></path><path d="M598.04 362.83c-0.79 0.79-1.55 1.58-2.31 2.39l124.35 124.35c6.01-3.9 11.6-8.42 16.68-13.5 26.23-26.23 36.45-64.25 28.07-104.37-0.87-0.92-1.75-1.83-2.65-2.73-47.02-47.03-120.5-49.77-164.14-6.14z" fill="#FFDF8E" p-id="2698"></path><path d="M442.89123 680.254201a27.27 16.25 44.999 1 0 22.980569-22.981372 27.27 16.25 44.999 1 0-22.980569 22.981372Z" fill="#FFA4B3" p-id="2699"></path><path d="M333.283887 570.640615a27.27 16.25 44.999 1 0 22.980569-22.981372 27.27 16.25 44.999 1 0-22.980569 22.981372Z" fill="#FFA4B3" p-id="2700"></path><path d="M364.1 539.84c-3.12-3.12-3.12-8.19 0-11.31l5.66-5.66c3.12-3.12 8.19-3.12 11.31 0 3.12 3.12 3.12 8.19 0 11.31l-5.66 5.66c-3.12 3.12-8.19 3.12-11.31 0zM485.25 655.75a7.007 7.007 0 0 1 0-9.9 4.152 4.152 0 0 0 0-5.87 4.152 4.152 0 0 0-5.87 0c-2.73 2.73-7.17 2.73-9.9 0s-2.73-7.17 0-9.9c7.08-7.08 18.59-7.08 25.67 0 7.08 7.08 7.08 18.59 0 25.67-2.73 2.73-7.16 2.73-9.9 0zM391.52 624.97c-10.84-10.84-12.61-26.04-4.04-34.61 2.73-2.73 7.17-2.73 9.9 0s2.73 7.17 0 9.9c-2.54 2.54-1.35 9.42 4.04 14.81 5.4 5.4 12.27 6.59 14.81 4.04 2.73-2.73 7.17-2.73 9.9 0s2.73 7.17 0 9.9c-8.57 8.57-23.77 6.79-34.61-4.04zM835.51 185.66c-21.38-21.38-56.18-21.38-77.56 0.01a54.88 54.88 0 0 0-15.8 33.46c-0.28 1.38-2.3 9.76-12.08 16.17-10.52 6.89-32.08 12.82-75.07 1.89-45.22-11.58-89.34-1.37-118.03 27.32-4.63 4.63-8.8 9.68-12.49 15.09-9.37-8.63-21.28-13.57-33.66-13.91-13.03-0.37-25.13 4.35-34.06 13.29l-16.81 16.81c-18.52 18.52-17.54 49.63 2.18 69.35l213.93 213.93c19.72 19.72 50.83 20.7 69.35 2.18l16.81-16.81c8.93-8.93 13.65-21.03 13.28-34.06-0.35-12.41-5.31-24.34-13.91-33.66a104.94 104.94 0 0 0 15.09-12.49c28.69-28.69 38.9-72.82 27.31-118.04l-0.1-0.36c-0.65-2.19-1.26-4.36-1.82-6.47-10.7-40.02-5.36-59.6 1.01-68.97 6.17-9.08 14.83-10.89 17.59-11.24 0.03 0 0.05 0 0.08-0.01l0.28-0.03c0.08-0.01 0.15-0.01 0.2-0.02l0.46-0.03a54.78 54.78 0 0 0 33.81-15.83c21.4-21.39 21.4-56.19 0.01-77.57z m-14.14 63.43a34.796 34.796 0 0 1-21.27 10.03l-0.07 0.01c-0.18 0.01-0.5 0.03-0.92 0.08-0.05 0-0.1 0.01-0.15 0.01l-0.45 0.04c-4.7 0.55-20.91 3.61-31.96 19.88-12.67 18.66-13.95 47.38-3.79 85.35 0.59 2.22 1.23 4.51 1.91 6.82 9.89 38.81 1.84 74.8-22.12 98.76-4.62 4.62-9.76 8.7-15.34 12.16l-44.47-44.47-0.03 0.03a9.97 9.97 0 0 0-7.27-3.15c-5.52 0-10 4.48-10 10 0 2.93 1.27 5.56 3.28 7.39l49.06 49.06c0.14 0.14 0.28 0.28 0.41 0.42l0.04 0.03 7.67 7.67c0.17 0.17 0.32 0.32 0.54 0.55 11.36 11.88 12.1 30.06 1.64 40.52l-16.81 16.81c-10.72 10.72-29.15 9.74-41.07-2.18L456.27 350.97c-11.92-11.92-12.9-30.35-2.18-41.07l16.81-16.81c10.46-10.46 28.64-9.72 40.58 1.7 0.12 0.11 0.23 0.23 0.35 0.34l0.14 0.14 7.67 7.67 0.03 0.04c0.14 0.13 0.28 0.27 0.42 0.41l98.85 98.85 21.7 21.7a9.968 9.968 0 0 0 7.39 3.28c5.52 0 10-4.48 10-10 0-2.88-1.23-5.47-3.18-7.3l0.03-0.03-115.93-115.92a85.387 85.387 0 0 1 12.16-15.34c23.99-23.99 60.05-32.04 98.94-22.08 40.52 10.3 71.3 8.66 91.46-4.86 17.44-11.7 20.2-28.08 20.46-29.91l0.12-0.82-0.01-0.24a34.87 34.87 0 0 1 10.01-20.93c13.59-13.59 35.69-13.59 49.28-0.01 13.59 13.61 13.59 35.72 0 49.31z" p-id="2701"></path></svg>