<?xml version="1.0" standalone="no"?><!DOCTYPE svg PUBLIC "-//W3C//DTD SVG 1.1//EN" "http://www.w3.org/Graphics/SVG/1.1/DTD/svg11.dtd"><svg t="1584354643499" class="icon" viewBox="0 0 1024 1024" version="1.1" xmlns="http://www.w3.org/2000/svg" p-id="2409" xmlns:xlink="http://www.w3.org/1999/xlink" width="200" height="200"><defs><style type="text/css"></style></defs><path d="M816.83 363.67h-38.07c-8.41 0-15.23-6.82-15.23-15.23V252.5c0-8.41 6.82-15.23 15.23-15.23h134.01c8.41 0 15.23 6.82 15.23 15.23 0 61.4-49.78 111.17-111.17 111.17z" fill="#FFCD6E" p-id="2410"></path><path d="M839.53 237.27h-60.77c-8.41 0-15.23 6.82-15.23 15.23v95.94c0 8.41 6.82 15.23 15.23 15.23h38.07c25.44 0 48.87-8.55 67.6-22.92-22.45-29.9-38.17-65.14-44.9-103.48z" fill="#F9B253" p-id="2411"></path><path d="M816.83 373.67h-38.07c-13.91 0-25.22-11.32-25.22-25.23V252.5c0-13.91 11.32-25.23 25.22-25.23h134.01c13.91 0 25.22 11.32 25.22 25.23 0.01 66.81-54.35 121.17-121.16 121.17z m-38.07-126.4c-2.88 0-5.22 2.34-5.22 5.23v95.94c0 2.88 2.34 5.23 5.22 5.23h38.07c55.78 0 101.17-45.38 101.17-101.17 0-2.88-2.34-5.23-5.22-5.23H778.76z" p-id="2412"></path><path d="M804.43 263.39c-24.66-88.33-106.76-153.08-202.74-151.56-112.75 1.79-203.6 93.74-203.6 206.92 0 34.09 8.25 66.26 22.85 94.62 6.84 13.29-2.78 29.11-17.73 29.11H298.02c-1.21 0-2.43-0.01-3.64-0.04-50.11-1.02-96.71-26.01-126.42-66.39l-8.04-10.92c-16.94-23.03-53.45-11.04-53.45 17.54v286.06c0 128.64 104.29 232.93 232.93 232.93h338.44c126.8 0 229.59-102.79 229.59-229.59 0-89.44-51.14-166.92-125.78-204.82-10.89-5.53-14.4-19.43-7.36-29.42 23.82-33.79 37.78-75.02 37.69-119.52" fill="#FFDF8E" p-id="2413"></path><path d="M418.06 435.86c-3.57 4-8.77 6.62-14.85 6.62H298.02c-1.21 0-2.43-0.01-3.64-0.04-50.11-1.02-96.71-26.01-126.42-66.39l-8.04-10.92c-16.94-23.03-53.45-11.04-53.45 17.54v286.06c0 128.64 104.29 232.93 232.93 232.93h338.44c64.86 0 123.43-26.91 165.19-70.15-222.15-6.64-402.98-177.69-424.97-395.65z" fill="#FFCD6E" p-id="2414"></path><path d="M677.84 911.67H339.4c-64.89 0-125.89-25.27-171.78-71.15S96.48 733.63 96.48 668.74V382.68c0-17.42 10.7-32.19 27.25-37.63 16.56-5.44 33.93 0.12 44.25 14.16l8.04 10.92c28.01 38.08 72.34 61.37 118.57 62.31 1.14 0.02 2.29 0.04 3.43 0.04h105.19c5.04 0 7.62-3.33 8.49-4.77 0.88-1.44 2.66-5.27 0.35-9.76-15.68-30.44-23.96-64.74-23.96-99.2 0-57.34 22.16-111.41 62.4-152.25 40.19-40.8 93.84-63.76 151.05-64.67 48.84-0.8 95.29 14.48 134.32 44.12 37.79 28.7 65.56 69.45 78.21 114.75 1.49 5.32-1.62 10.84-6.94 12.32-5.32 1.49-10.84-1.62-12.32-6.94-24.11-86.35-103.46-145.66-192.95-144.25-106.84 1.69-193.76 90.03-193.76 196.92 0 31.74 7.31 62.03 21.74 90.04 4.83 9.37 4.43 20.34-1.05 29.33-5.48 8.99-15.04 14.35-25.57 14.35h-105.2c-1.28 0-2.56-0.01-3.84-0.04-26.02-0.53-52.06-7.31-75.33-19.59-23.02-12.16-43.4-29.75-58.94-50.87l-8.04-10.92c-6.2-8.43-15.39-9.15-21.91-7.01-6.52 2.14-13.49 8.16-13.49 18.63v286.06c0 122.92 100.01 222.93 222.93 222.93h338.44c121.08 0 219.59-98.51 219.59-219.59 0-83.15-46.1-158.22-120.31-195.9a30.092 30.092 0 0 1-15.59-19.59c-2.1-8.46-0.43-17.39 4.59-24.5 23.54-33.4 35.95-72.73 35.86-113.74-0.01-5.52 4.46-10.01 9.98-10.02h0.02c5.51 0 9.99 4.46 10 9.98 0.09 45.17-13.57 88.5-39.51 125.31-1.69 2.4-2.23 5.3-1.52 8.16 0.72 2.89 2.58 5.23 5.24 6.58 38.86 19.73 71.65 49.71 94.82 86.69 23.83 38.03 36.43 81.96 36.43 127.04 0 64-24.92 124.17-70.17 169.42-45.27 45.25-105.43 70.17-169.43 70.17z" p-id="2415"></path><path d="M530.26 821.5h88.71c0.36 0 0.71-0.02 1.07-0.03 0.71 0.01 1.42 0.03 2.14 0.03 78.41 0 142.1-63.04 143.16-141.2 1.08-79.7-62.25-144.49-141.95-145.14-42.96-0.35-81.59 18.22-108.06 47.88-42.17 47.27-101.92 75.09-165.27 75.09h-0.84c0 45.19 36.64 81.83 81.83 81.83h3.58c7.41 0 11.33 8.64 6.56 14.32a40.735 40.735 0 0 0-9.58 26.31c0 22.6 18.32 40.91 40.91 40.91" fill="#FFEBC2" p-id="2416"></path><path d="M622.19 831.5c-0.56 0-1.12-0.01-1.68-0.02l-0.39-0.01h-0.1c-0.35 0.01-0.7 0.02-1.04 0.02h-88.71c-5.52 0-10-4.48-10-10s4.48-10 10-10h88.71c0.13 0 0.26-0.01 0.39-0.01l0.44-0.01h0.38l0.65 0.01c0.45 0.01 0.9 0.02 1.35 0.02 72.45 0 132.18-58.92 133.16-131.33 0.49-35.89-12.96-69.67-37.86-95.12-24.88-25.43-58.33-39.6-94.17-39.89h-1.1c-37.94 0-74.12 16.19-99.41 44.54-42.24 47.34-101.15 75.51-162.91 78.22 4.79 34.99 34.88 62.04 71.17 62.04h3.58c7.33 0 13.8 4.12 16.89 10.75 3.11 6.68 2.09 14.35-2.67 20.01a30.909 30.909 0 0 0-7.24 19.87c0 17.05 13.87 30.91 30.91 30.91 5.52 0 10 4.48 10 10s-4.48 10-10 10c-28.07 0-50.91-22.84-50.91-50.91 0-11.06 3.62-21.84 10.24-30.63h-0.8c-50.64 0-91.83-41.19-91.83-91.83 0-5.52 4.48-10 10-10h0.84c59.61 0 117.13-26.15 157.81-71.75 29.09-32.6 70.7-51.23 114.34-51.23h1.26c41.21 0.34 79.67 16.64 108.3 45.9 28.65 29.28 44.12 68.13 43.57 109.37-0.55 40.47-16.72 78.43-45.54 106.89-28.87 28.5-67.09 44.19-107.63 44.19z" p-id="2417"></path><path d="M688.35 274.56a27.27 16.25 0 1 0 54.54 0 27.27 16.25 0 1 0-54.54 0Z" fill="#FC90B4" p-id="2418"></path><path d="M715.62 256.25c-4.42 0-8-3.58-8-8v-8c0-4.42 3.58-8 8-8s8 3.58 8 8v8c0 4.41-3.58 8-8 8z" p-id="2419"></path></svg>