<?xml version="1.0" standalone="no"?><!DOCTYPE svg PUBLIC "-//W3C//DTD SVG 1.1//EN" "http://www.w3.org/Graphics/SVG/1.1/DTD/svg11.dtd"><svg t="1584354651845" class="icon" viewBox="0 0 1024 1024" version="1.1" xmlns="http://www.w3.org/2000/svg" p-id="2548" xmlns:xlink="http://www.w3.org/1999/xlink" width="200" height="200"><defs><style type="text/css"></style></defs><path d="M306.91 352.55h412.87v305.77H306.91z" fill="#FFCD6E" p-id="2549"></path><path d="M355.21 352.55h364.57v305.77H355.21z" fill="#FFDF8E" p-id="2550"></path><path d="M729.78 668.32H296.91V342.55h432.87v325.77z m-412.87-20h392.87V362.55H316.91v285.77z" p-id="2551"></path><path d="M653.13 406.03h105.04c24.34 0 37.49-24.95 21.66-41.11L534.64 114.47c-11.39-11.63-31.97-11.62-43.34 0.02L246.75 364.94c-15.79 16.17-2.64 41.09 21.68 41.09h328.6" fill="#FC90B4" p-id="2552"></path><path d="M640.05 341.81c34.61 0 67.52-7.23 97.33-20.24l-202.74-207.1c-11.39-11.63-31.97-11.62-43.34 0.02l-75.98 77.81c36.8 87.82 123.56 149.51 224.73 149.51z" fill="#FDA0C1" p-id="2553"></path><path d="M758.17 416.03H653.13c-5.52 0-10-4.48-10-10s4.48-10 10-10h105.04c9.78 0 15.58-5.52 17.56-10.25 1.18-2.81 2.36-8.35-3.05-13.87L527.49 121.47c-3.55-3.63-8.84-5.71-14.51-5.71h-0.02c-5.67 0-10.96 2.09-14.51 5.73L253.91 371.92c-5.39 5.52-4.21 11.05-3.03 13.86 1.99 4.72 7.78 10.24 17.56 10.24h328.6c5.52 0 10 4.48 10 10s-4.48 10-10 10h-328.6c-16.11 0-30.24-8.82-35.99-22.48-5.13-12.18-2.39-25.82 7.15-35.6L484.14 107.5c7.29-7.46 17.79-11.75 28.81-11.75h0.03c11.01 0 21.51 4.27 28.81 11.72l245.19 250.44c9.57 9.77 12.32 23.41 7.2 35.61-5.76 13.67-19.89 22.51-36.01 22.51z" p-id="2554"></path><path d="M442.54 801.11c21.65-11.42 46.32-17.88 72.5-17.88 74.1 0 136.11 51.78 151.82 121.13 4.57 20.19 22.77 34.37 43.47 34.37h86.66c24.48 0 44.33-19.85 44.33-44.33V663.8c0-24.48-19.85-44.33-44.33-44.33H233.08c-24.48 0-44.33 19.85-44.33 44.33v230.6c0 24.48 19.85 44.33 44.33 44.33h86.66c20.7 0 38.9-14.18 43.47-34.37 5.83-25.72 18.02-49.02 34.83-68.16" fill="#7FD196" p-id="2555"></path><path d="M442.3 801.11c21.65-11.42 46.32-17.88 72.5-17.88 74.1 0 136.11 51.78 151.82 121.13 4.57 20.19 22.77 34.37 43.47 34.37h86.66c24.48 0 44.33-19.85 44.33-44.33V663.8c0-24.48-19.85-44.33-44.33-44.33h-513.9c-24.48 0-44.33 19.85-44.33 44.33v230.6c0 24.48 19.85 44.33 44.33 44.33h36.66c20.7 0 38.9-14.18 43.47-34.37 5.83-25.72 18.02-49.02 34.83-68.16" fill="#9EDCAE" p-id="2556"></path><path d="M796.99 948.73h-86.66c-25.3 0-47.69-17.73-53.22-42.16-15.12-66.73-73.54-113.34-142.07-113.34-23.63 0-47.09 5.78-67.84 16.72-4.89 2.58-10.93 0.7-13.51-4.18-2.58-4.89-0.7-10.93 4.18-13.51 23.62-12.45 50.3-19.03 77.17-19.03 37.79 0 74.76 13.06 104.1 36.78 28.9 23.37 49.31 56.09 57.48 92.14 3.49 15.4 17.67 26.58 33.72 26.58H797c18.93 0 34.33-15.4 34.33-34.33V663.8c0-18.93-15.4-34.33-34.33-34.33H233.08c-18.93 0-34.33 15.4-34.33 34.33v230.6c0 18.93 15.4 34.33 34.33 34.33h86.66c16.05 0 30.23-11.18 33.72-26.58 6.06-26.75 18.88-51.84 37.07-72.55 3.64-4.15 9.96-4.56 14.11-0.91 4.15 3.65 4.56 9.96 0.91 14.11-16 18.21-27.27 40.26-32.59 63.77-5.53 24.43-27.92 42.16-53.22 42.16h-86.66c-29.96 0-54.33-24.37-54.33-54.33V663.8c0-29.96 24.37-54.33 54.33-54.33h563.91c29.96 0 54.33 24.37 54.33 54.33v230.6c0 29.95-24.37 54.33-54.33 54.33z" p-id="2557"></path><path d="M585.51 520.04a27.27 16.25 0 1 0 54.54 0 27.27 16.25 0 1 0-54.54 0Z" fill="#FF838C" p-id="2558"></path><path d="M386.55 520.04a27.27 16.25 0 1 0 54.54 0 27.27 16.25 0 1 0-54.54 0Z" fill="#FF838C" p-id="2559"></path><path d="M413.82 501.72c-4.42 0-8-3.58-8-8v-8c0-4.42 3.58-8 8-8s8 3.58 8 8v8c0 4.42-3.58 8-8 8zM612.78 501.72c-4.42 0-8-3.58-8-8v-8c0-4.42 3.58-8 8-8s8 3.58 8 8v8c0 4.42-3.58 8-8 8z" p-id="2560"></path><path d="M548.8 527.21c0 13.41-15.69 28.8-33.12 28.8-20.34 0-33.12-15.39-33.12-28.8s14.83-19.76 33.12-19.76 33.12 6.35 33.12 19.76z" fill="#706668" p-id="2561"></path><path d="M515.68 564.01c-24.6 0-41.12-19.03-41.12-36.8 0-17.12 15.76-27.76 41.12-27.76s41.12 10.64 41.12 27.76c0 18.57-20.37 36.8-41.12 36.8z m0-48.55c-11.59 0-25.12 3.08-25.12 11.76 0 8.72 8.73 20.8 25.12 20.8 12.94 0 25.12-11.72 25.12-20.8 0-8.68-13.53-11.76-25.12-11.76z" p-id="2562"></path></svg>